<?xml version="1.0" encoding="UTF-8"?><svg xmlns="http://www.w3.org/2000/svg" viewBox="0 0 500 500"><defs><style>.cls-1{fill:none;stroke:#fff;stroke-miterlimit:10;stroke-width:15px;}</style></defs><g id="TopCircleFull"><path class="cls-1" d="m257.21,30.65c-52.26,0-94.62,42.36-94.62,94.62,0,3.03.15,6.03.43,8.99,3.7,39.27,31.4,71.56,68.27,82.04,8.24,2.34,16.93,3.59,25.92,3.59s18.53-1.38,27.12-3.95c36.39-10.87,63.58-43.04,67.11-82.04.26-2.84.4-5.72.4-8.63,0-52.26-42.36-94.62-94.62-94.62Z"/></g><g id="LeftHalfCircle"><path class="cls-1" d="m135.16,301.96c15.49,11.08,34.47,17.59,54.97,17.59,26.53,0,50.51-10.93,67.69-28.52,16.66-17.06,26.93-40.38,26.93-66.1,0-3.03-.15-6.03-.43-8.99-2.09-22.15-11.81-42.07-26.5-57.12-17.18-17.59-41.16-28.52-67.69-28.52-9.43,0-18.53,1.38-27.12,3.95"/></g><g id="RightHalfCircle"><path class="cls-1" d="m351.43,133.9c-8.24-2.34-16.93-3.59-25.92-3.59-26.53,0-50.51,10.93-67.69,28.52-14.77,15.13-24.52,35.18-26.53,57.47-.26,2.84-.4,5.72-.4,8.63,0,25.73,10.27,49.05,26.93,66.1,17.18,17.59,41.16,28.52,67.69,28.52,23.1,0,44.27-8.28,60.7-22.03"/></g></svg>