<?xml version="1.0" encoding="UTF-8"?><svg id="PuzzleNrB" xmlns="http://www.w3.org/2000/svg" viewBox="0 0 500 500"><path d="m81.43,318.74c4.08-12.62,7.66-26.35,12.98-39.36,5.44-13.31,11.91-26.33,19.2-38.72,6.7-11.39,14.63-22.15,22.91-32.47,6.09-7.59,13.2-14.51,20.6-20.85,13.53-11.59,28.43-20.67,45.85-25.98,13.07-3.98,25.52-4.99,38.48-.97,13.5,4.18,22.66,13.8,29.79,25.17,11.6,18.49,18.2,39.1,22.02,60.44,2.71,15.17,4,30.6,5.92,45.92.2,1.62.42,3.23,1.11,4.82,1.15-10.56,2.05-21.15,3.49-31.68,2.6-19.1,4.85-38.29,8.5-57.2,3.53-18.25,8.61-36.2,13.07-54.26,4.97-20.1,12.38-39.3,22.63-57.27,10.91-19.12,23.23-37.27,42.36-49.34,10.17-6.42,21.21-10.55,33.56-8.51,11.2,1.85,19.8,7.69,24.53,18.22,7.66,17.05,10.71,35.18,11.59,53.69.15,3.18-1.18,6.49-2.19,9.63-.33,1.02-1.82,1.67-2.78,2.5-.77-.95-2.05-1.8-2.24-2.86-1.46-8.14-2.72-16.32-4.01-24.49-2.07-13.15-4.16-26.32-11.81-37.69-5.64-8.39-16.8-11.42-26.57-8.73-15.08,4.16-25.84,14.01-35.57,25.38-15.53,18.14-25.73,39.3-33.81,61.52-8.54,23.49-14.35,47.76-18.73,72.33-3.43,19.28-6.89,38.61-9,58.06-2.22,20.45-2.95,41.07-4.13,61.62-.79,13.76-1.28,27.53-1.83,41.3-.55,13.72-1,27.45-1.5,41.17-.04,1.16-.01,2.34-.17,3.49-.54,3.88-1.78,7.64-6.52,7.23-4.57-.39-4.31-4.63-4.27-7.78.14-12.91.65-25.82.87-38.73.05-2.77-.58-5.55-.8-8.33-2.04-25.51-3.6-51.07-6.24-76.51-1.95-18.82-4.2-37.73-8.31-56.15-4.54-20.33-12.31-39.78-27.78-54.74-9.29-8.99-20.58-12.52-33.84-10.74-20.79,2.8-37.71,12.94-53.68,25.64-14.74,11.72-26.63,26.02-37.12,41.34-9.72,14.2-17.04,29.82-23.49,45.9-9.63,23.98-15.09,48.97-19.38,74.23-2.61,15.35-3.33,31.02-4.98,46.53-1.09,10.22-2.3,20.42-3.52,30.62-.4,3.36-2.39,6.5-5.67,5.21-2.26-.89-4.89-4.79-4.75-7.2.72-12.43,2.61-24.79,3.45-37.22.97-14.37,1.85-28.79,1.75-43.18-.17-26.23-.22-52.51-1.9-78.66-2.12-32.99-5.54-65.91-8.95-98.8-2.48-23.85-7.65-47.21-15.21-70-1.92-5.81-4.32-11.46-6.28-17.26-.9-2.65-1.55-5.45-1.8-8.23-.33-3.68,1.97-4.96,4.5-2.53,2.9,2.78,5.61,6.21,7.14,9.88,9.21,22.01,15.28,44.93,18.34,68.58,3.17,24.55,6.62,49.09,8.81,73.74,2.16,24.3,2.89,48.72,4.25,73.09.37,6.64.76,13.27,1.1,19.22Z"/><path d="m175.7,377.21c-.14,4.37-4.03,7.93-8.62,7.89-4.18-.04-8.08-4.23-7.95-8.56.12-4.03,5.04-8.69,8.96-8.49,3.7.19,7.75,5.06,7.62,9.16Z"/><path d="m230.96,337.1c-4.5.05-7.99-3.31-7.98-7.67.01-4.4,4.17-9.02,8.22-9.12,4.3-.1,8.15,3.43,8.26,7.58.13,4.9-3.81,9.16-8.49,9.22Z"/></svg>