<?xml version="1.0" encoding="UTF-8"?><svg id="Solution" xmlns="http://www.w3.org/2000/svg" viewBox="0 0 500 500"><defs><style>.cls-1{fill:none;stroke:#000;stroke-miterlimit:10;stroke-width:15px;}</style></defs><path d="m110.35,36.15c31.74.67,62.05,22.05,85.51,60.36,12.19,19.91,21.79,43.2,28.53,69.23,7.04,27.2,10.62,56.14,10.62,86s-3.57,58.8-10.62,86c-6.74,26.02-16.34,49.31-28.53,69.23-23.46,38.31-53.77,59.68-85.51,60.36,19.32-16.56,36.16-39.5,49.65-67.88,20.31-42.73,31.05-93.8,31.05-147.7s-10.74-104.98-31.05-147.7c-13.49-28.38-30.33-51.32-49.65-67.88m-1.55-15.02c-12.8,0-25.19,2.8-36.98,8.01,60.04,26.54,104.22,116.14,104.22,222.59s-44.18,196.05-104.22,222.59c11.79,5.21,24.18,8.01,36.98,8.01,77.98,0,141.2-103.24,141.2-230.6S186.78,21.13,108.8,21.13h0Z"/><path class="cls-1" d="m244.07,186.43s-13.07-146.88,138.04-155.77c0,0-65.78,93.92-58.22,185.78,8.89,108-145.89,225.89-145.89,225.89,0,0,86-89.67,66.07-255.9Z"/></svg>