<?xml version="1.0" encoding="UTF-8"?><svg id="PuzzleNr4" xmlns="http://www.w3.org/2000/svg" viewBox="0 0 500 500"><path d="m112.77,365.1c3.69-6.98,7.43-13.94,11.05-20.95,6.32-12.24,12.24-24.69,18.9-36.74,10.5-19.01,21.02-38.04,32.4-56.53,10.26-16.68,21.39-32.84,32.68-48.85,10.22-14.51,20.9-28.72,31.86-42.67,22.92-29.17,47.63-56.79,74.14-82.72,16.86-16.49,34.39-32.31,52.04-47.97,7.55-6.7,15.98-12.45,24.4-18.07,2.15-1.44,5.74-.72,8.66-.99-.23,2.62.36,5.73-.84,7.77-5.32,9.02-11.58,17.49-16.72,26.6-11.91,21.12-23.53,42.41-34.98,63.79-17.79,33.19-30.24,68.48-39.35,104.89-6.33,25.31-11.3,50.97-12.81,77.12-.92,15.91-2.13,31.89-1.51,47.77.57,14.54,2.27,29.27,5.56,43.42,4.25,18.26,11.72,35.57,25.94,48.64,14.6,13.41,33.88,17.61,55,7.49,21.79-10.45,38.45-25.65,48.99-47.62,7.77-16.21,11.04-33.12,7.6-50.64-3.15-16.07-14.94-22.36-29.05-23.5-22.86-1.84-33.32,10.68-39.39,31.08-.76,2.54-1.18,5.19-1.7,7.81-1.18,6.02-.04,7.51,6,7.95.82.06,1.63.17,2.72.29.27,4.64-2.21,7.31-6.1,8.47-4.88,1.46-10.33-.95-11.29-5.63-1-4.91-1.25-10.23-.54-15.19,1.57-11.01,5.6-21.14,12.94-29.8,11.68-13.79,26.79-17.25,43.72-14.15,24.75,4.53,35.15,24.34,33.95,48.9-.58,11.9-3.47,23.37-8.09,34.25-6.42,15.11-15.23,28.41-28.32,39.06-13.39,10.89-27.57,19.68-44.53,23.22-12.48,2.6-24.26.4-35.53-5.9-23.86-13.32-34.29-35.51-41.06-60.37-5.77-21.2-7.04-42.81-7-64.67.06-32.59,4.49-64.61,12.04-96.19,4.83-20.2,10.05-40.38,16.66-60.05,5.59-16.65,12.61-32.94,20.45-48.67,11.31-22.72,23.95-44.77,35.98-67.14,2.26-4.21,4.3-8.53,5.91-13.46-5.09,4.22-10.4,8.2-15.22,12.71-12.73,11.93-25.74,23.63-37.74,36.28-21.37,22.53-42.66,45.19-62.89,68.73-15.45,17.98-30.16,36.76-43.51,56.34-17.75,26.03-34.55,52.77-50.44,79.97-12.89,22.07-24.28,45.05-35.48,68.04-9.39,19.26-17.84,38.99-26.12,58.76-4.35,10.37-7.42,21.28-11.12,31.93-.65,1.87-1.11,4.32-2.5,5.29-1.63,1.13-4.71,1.87-6.17,1.04-1.38-.78-2.4-4.05-1.97-5.84,1.95-8.07,4.75-15.94,6.75-24.01,6-24.21,12.16-48.39,17.54-72.74,5.66-25.63,9.1-51.65,11.17-77.83,1.71-21.52,3.87-43.03,4.78-64.58.68-16.1-.22-32.27-.59-48.4-.23-9.77-.24-19.6-1.33-29.3-2.08-18.48-4.5-36.94-7.52-55.28-1.39-8.46-4.45-16.65-6.87-24.93-1.24-4.24-3.74-5.98-8.28-4.01-14.19,6.18-26.82,14.39-36.11,27.08-.98,1.34-1.84,2.9-3.13,3.86-1.28.96-3.42,2.17-4.47,1.7-1.23-.55-2.26-2.76-2.39-4.34-.52-6.16,3.6-10.35,7.5-14.02,9.72-9.15,20.17-17.54,32.66-22.62,4.22-1.71,9.27-2.27,13.85-1.97,5.57.37,8.03,5.46,9.25,10.04,3.97,14.9,7.85,29.85,10.79,44.98,2.37,12.19,3.71,24.62,4.81,37,.96,10.74,1.04,21.57,1.33,32.37.35,13.11,1.09,26.24.63,39.32-.72,20.58-1.61,41.2-3.7,61.68-2.63,25.78-6.42,51.45-9.96,77.13-1.18,8.52-3.15,16.93-4.76,25.39.14.06.28.13.42.19Z"/></svg>