<?xml version="1.0" encoding="UTF-8"?><svg id="PuzzleNr5" xmlns="http://www.w3.org/2000/svg" viewBox="0 0 500 500"><path d="m200.67,265.31c-9.65,2.18-19.15,2.65-28.78,1.12-9.45-1.5-16.54-6.86-22.32-13.98-10.97-13.53-18.53-29.09-21.95-45.95-4.51-22.26-7.26-44.87-10.58-67.36-.56-3.83-.48-7.84-.07-11.71.2-1.85,1.86-3.54,3.25-6,5.39,5.63,5.07,11.95,5.95,17.86,3.79,25.46,5.55,51.41,14.46,75.77,4.01,10.95,9.62,21.73,16.51,31.11,8.75,11.91,22.21,13.48,35.71,9.69,18.41-5.17,34.78-14.31,49.49-26.78,21.92-18.59,44.38-36.55,66.64-54.73,17.48-14.27,35.94-27.5,52.3-42.96,19.07-18.02,36.27-38.02,45.19-63.53,1.47-4.21,2.4-8.65,3.18-13.06,1.97-10.99-5.84-18.57-16.81-23.68-13.11-6.11-27.19-6.91-41.45-6.14-22.62,1.22-43.11,9.01-62.52,20.08-4.43,2.52-8.42,5.79-12.69,8.6-2.51,1.65-5.32,3.69-7.78.12-2.22-3.21-1.18-6.28,1.95-8.11,10.84-6.37,21.65-12.82,32.78-18.66,13.11-6.88,27.51-9.98,42.05-11.56,15.97-1.74,32.07-1.4,47.31,4.52,12.98,5.03,24.04,12.47,26.87,27.63,1.8,9.63-1.46,18.42-4.76,27.12-5.9,15.57-15.01,29.43-25.95,41.68-11.23,12.59-23.7,24.15-36.28,35.43-11.96,10.73-24.67,20.63-37.21,30.69-13.85,11.11-27.89,21.99-41.67,33.46,3.02-1.02,6.05-2.03,9.07-3.05,13.3-4.48,27.07-7.04,40.98-6.44,17.1.73,34.46,2.19,47.78,15.12,2.11,2.05,2.77,5.59,4.1,8.44-2.94-.34-6.34.14-8.75-1.18-9.22-5.08-18.31-9.96-29.06-11.35-17.95-2.32-35.64-1.82-52.42,5.21-14.69,6.15-29.25,12.82-43.15,20.54-7.7,4.28-14.21,10.9-20.77,16.98-18.37,17.02-36.75,34.03-54.62,51.57-16.49,16.2-32.25,33.2-45.09,52.51-11.36,17.08-16.1,36.31-13.12,56.65,3.12,21.3,16.35,34.71,36.17,42.31,14.18,5.44,28.81,7.57,43.9,7.91,16.57.38,32.3-3.83,48.02-8.14,18.03-4.94,35.16-12.22,51.46-21.32,19.9-11.11,36.34-26.04,46.07-46.98,9.64-20.75,11.3-41.88-.45-62.69-.33-.58-.9-1.11-.99-1.72-.37-2.52-.6-5.06-.88-7.59,2.65.92,5.96,1.14,7.83,2.89,5.9,5.53,8.6,12.94,10.23,20.71,4.3,20.46.12,39.72-9.4,57.78-8.43,16.01-20.77,28.75-35.91,38.78-24.53,16.25-51.57,26.54-79.87,33.82-20.41,5.25-41.13,6.21-61.79,2.19-17.11-3.33-33.42-9.02-46.34-21.64-14.72-14.39-19.35-32.39-18.61-52.27.65-17.31,7.4-32.45,16.38-46.93,11.15-17.98,25.93-32.84,40.37-47.99,8.48-8.9,17.29-17.51,26.1-26.1,6.52-6.35,13.27-12.46,19.92-18.68Z"/><path d="m175.7,377.21c-.14,4.37-4.03,7.93-8.62,7.89-4.18-.04-8.08-4.23-7.95-8.56.12-4.03,5.04-8.69,8.96-8.49,3.7.19,7.75,5.06,7.62,9.16Z"/><path d="m230.96,337.1c-4.5.05-7.99-3.31-7.98-7.67.01-4.4,4.17-9.02,8.22-9.12,4.3-.1,8.15,3.43,8.26,7.58.13,4.9-3.81,9.16-8.49,9.22Z"/></svg>