<?xml version="1.0" encoding="UTF-8"?><svg id="Lager_3" xmlns="http://www.w3.org/2000/svg" viewBox="0 0 500 500"><path d="m250,193.22c31.31,0,56.78,25.47,56.78,56.78s-25.47,56.78-56.78,56.78-56.78-25.47-56.78-56.78,25.47-56.78,56.78-56.78m0-15c-39.64,0-71.78,32.14-71.78,71.78s32.14,71.78,71.78,71.78,71.78-32.14,71.78-71.78-32.14-71.78-71.78-71.78h0Z"/><circle cx="250" cy="250" r="15.01"/><path d="m250,242.49c4.14,0,7.51,3.37,7.51,7.51s-3.37,7.51-7.51,7.51-7.51-3.37-7.51-7.51,3.37-7.51,7.51-7.51m0-15c-12.43,0-22.51,10.08-22.51,22.51s10.08,22.51,22.51,22.51,22.51-10.08,22.51-22.51-10.08-22.51-22.51-22.51h0Z"/></svg>