<?xml version="1.0" encoding="UTF-8"?><svg xmlns="http://www.w3.org/2000/svg" viewBox="0 0 500 500"><defs><style>.cls-1{fill:none;stroke:#fff;stroke-miterlimit:10;stroke-width:15px;}</style></defs><g id="LeftLine"><line class="cls-1" x1="122.44" y1="291.03" x2="257.82" y2="473.67"/></g><g id="RightLine"><line class="cls-1" x1="393.21" y1="291.03" x2="257.82" y2="473.67"/></g><g id="MiddleTriangle"><path class="cls-1" d="m231.29,216.3c8.24,2.34,16.93,3.59,25.92,3.59s18.53-1.38,27.12-3.95c-2.09-22.15-11.81-42.07-26.5-57.12-14.77,15.13-24.52,35.18-26.53,57.47Z"/></g><g id="LowerTriangle"><path class="cls-1" d="m284.32,215.94c-8.59,2.57-17.69,3.95-27.12,3.95s-17.68-1.25-25.92-3.59c-.26,2.84-.4,5.72-.4,8.63,0,25.73,10.27,49.05,26.93,66.1,16.66-17.06,26.93-40.38,26.93-66.1,0-3.03-.15-6.03-.43-8.99Z"/></g><g id="RightTriangle"><path class="cls-1" d="m257.82,158.83c14.7,15.05,24.42,34.97,26.5,57.12,36.39-10.87,63.58-43.04,67.11-82.04-8.24-2.34-16.93-3.59-25.92-3.59-26.53,0-50.51,10.93-67.69,28.52Z"/></g><g id="LeftTriangle"><path class="cls-1" d="m231.29,216.3c2.02-22.29,11.76-42.35,26.53-57.47-17.18-17.59-41.16-28.52-67.69-28.52-9.43,0-18.53,1.38-27.12,3.95,3.7,39.27,31.4,71.56,68.27,82.04Z"/></g><g id="RightCircle"><path class="cls-1" d="m351.43,133.9c-3.53,39-30.72,71.17-67.11,82.04.28,2.96.43,5.95.43,8.99,0,25.73-10.27,49.05-26.93,66.1,17.18,17.59,41.16,28.52,67.69,28.52,52.26,0,94.62-42.36,94.62-94.62,0-43.27-29.04-79.76-68.7-91.03Z"/></g><g id="LeftCircle"><path class="cls-1" d="m231.29,216.3c-36.88-10.48-64.57-42.77-68.27-82.04-39.04,11.66-67.5,47.84-67.5,90.67,0,52.26,42.36,94.62,94.62,94.62,26.53,0,50.51-10.93,67.69-28.52-16.66-17.06-26.93-40.38-26.93-66.1,0-2.91.14-5.79.4-8.63Z"/></g><g id="TopCircle"><path class="cls-1" d="m257.82,158.83c17.18-17.59,41.16-28.52,67.69-28.52,8.99,0,17.68,1.25,25.92,3.59.26-2.84.4-5.72.4-8.63,0-52.26-42.36-94.62-94.62-94.62s-94.62,42.36-94.62,94.62c0,3.03.15,6.03.43,8.99,8.59-2.57,17.69-3.95,27.12-3.95,26.53,0,50.51,10.93,67.69,28.52Z"/></g></svg>