<?xml version="1.0" encoding="UTF-8"?><svg id="PuzzleNrE" xmlns="http://www.w3.org/2000/svg" viewBox="0 0 500 500"><path d="m130.96,235.63c-2.18,2.65-3.88,5.52-6.3,7.53-10.53,8.7-16.96,20.37-23.38,32-12.76,23.13-20.52,47.75-18.94,74.41,1.2,20.3,6.82,39.29,21.39,54.56,8.91,9.34,20.31,11.62,32.61,12.12,17.22.7,33.69-2.94,49.79-8.3,15.71-5.23,31.55-10.38,46.62-17.16,14.93-6.72,29.3-14.88,43.29-23.43,14.14-8.64,27.8-18.16,41.15-27.99,16.27-11.99,29.87-26.92,42.64-42.43,11-13.35,20.5-27.91,24.82-44.98,3.37-13.31,3.7-26.44-6.53-37.55-5.84-6.35-13.44-8.99-21.71-10.03-3.76-.48-7.78-.64-7.64-5.8.08-3.01,4.69-4.55,9.58-3.91,14.13,1.86,25.34,7.91,32.6,20.79,7.57,13.4,6.49,27.2,2.53,41.04-6.03,21.11-18.75,38.4-32.89,54.66-6.76,7.77-14.09,15.08-21.51,22.23-15.36,14.81-32.38,27.63-50.67,38.45-17.7,10.48-35.99,20.04-54.48,29.08-10.54,5.15-21.86,8.86-33.07,12.48-12.28,3.96-24.65,8.1-37.31,10.27-11.85,2.03-24.27,3.06-36.18,1.92-20.92-2.02-35.25-14.55-43.96-33.36-7.27-15.69-11.72-32.14-11.29-49.62.45-18.33,3.84-36.1,11.48-52.79,5.22-11.41,10.79-22.74,17.35-33.42,4.88-7.95,10.55-15.72,18.83-20.88,3.46-2.16,6.83-3.22,11.17.12Z"/><path d="m319.25,73.6c-.43,7.34-2.74,12.65-7.89,16.52-3.45,2.59-8.81,1.52-11.38-2.28-3.7-5.47-3.2-17.59.79-22.84,2.59-3.41,5.85-4.64,10.04-4,4.04.62,6.01,3.12,6.9,6.85.54,2.25,1.19,4.46,1.54,5.73Z"/><path d="m181.05,139.08c-.6,5.13-1.6,9.68-6.54,11.4-2.05.71-5.46-.06-7.23-1.46-4.17-3.28-4.13-8.08-2.59-12.79,2.47-7.59,8.62-10.59,12.81-5.99,2,2.2,2.42,5.85,3.55,8.84Z"/></svg>