<?xml version="1.0" encoding="UTF-8"?><svg id="Solution" xmlns="http://www.w3.org/2000/svg" viewBox="0 0 500 500"><path d="m250.43,14.55c31.73,0,62.51,6.21,91.47,18.46,27.98,11.84,53.12,28.78,74.7,50.37,21.59,21.59,38.53,46.72,50.37,74.7,12.25,28.96,18.46,59.74,18.46,91.47s-6.21,62.51-18.46,91.47c-11.84,27.98-28.78,53.12-50.37,74.7s-46.72,38.53-74.7,50.37c-28.96,12.25-59.74,18.46-91.47,18.46s-62.51-6.21-91.47-18.46c-27.98-11.84-53.12-28.78-74.7-50.37-21.59-21.59-38.53-46.72-50.37-74.7-12.25-28.96-18.46-59.74-18.46-91.47s6.21-62.51,18.46-91.47c11.84-27.98,28.78-53.12,50.37-74.7,21.59-21.59,46.72-38.53,74.7-50.37,28.96-12.25,59.74-18.46,91.47-18.46m0-15C112.36-.45.43,111.47.43,249.55s111.93,250,250,250,250-111.93,250-250S388.51-.45,250.43-.45h0Z"/><path d="m105.69,80.38l144.52.9,138.8,3.23L105.46,397.07l.23-316.68m-14.99-15.09l-.26,370.67L422.17,70.29l-171.74-4-159.74-1h0Z"/></svg>