<?xml version="1.0" encoding="UTF-8"?><svg id="PuzzleNrC" xmlns="http://www.w3.org/2000/svg" viewBox="0 0 500 500"><path d="m205.96,366.95c-7.56,12.85-14.35,24.8-21.54,36.51-7.39,12.02-15.09,23.85-22.82,35.66-4.65,7.1-9.68,13.94-14.4,20.99-2.13,3.18-4.41,4.28-7.87,1.98-3.61-2.41-1.7-4.71-.15-7.16,16.23-25.49,33.21-50.54,48.43-76.61,12.72-21.79,23.85-44.56,34.82-67.32,9.15-18.98,17.17-38.52,25.46-57.91,5.74-13.42,11.7-26.8,16.5-40.57,9.45-27.12,19.65-54.02,24.65-82.52,2.88-16.39,3.75-32.77,1.25-49.11-2.6-16.99-7.82-33.16-22.16-44.39-12.17-9.53-26.59-12.79-41.63-13.2-15.99-.44-31.66,2.2-47.36,5.38-18.13,3.67-34.92,10.47-50.64,19.69-7.72,4.53-13.98,11.58-20.85,17.54-1.25,1.08-2.1,2.79-3.49,3.53-2.18,1.15-4.67,1.72-7.03,2.53-.09-2.66-1.33-6.23-.07-7.83,4.56-5.82,9.3-11.87,15.15-16.25,23.07-17.27,49.37-26.85,77.72-31.53,16.01-2.64,32.03-3.79,48.08-1.91,15.68,1.83,29.67,7.47,41.14,19.22,16.24,16.63,20.86,37.3,21.93,59.21,1.63,33.17-6.47,64.64-17.97,95.4-6.58,17.58-12.92,35.25-19.82,52.71-6.52,16.5-13.62,32.77-20.45,49.15-.43,1.04-.76,2.13-1.38,3.87,7.58-9.81,14.07-19.59,21.93-28.09,13.63-14.73,27.69-29.12,42.39-42.78,12.51-11.62,26.1-22.08,39.37-32.87,2.52-2.05,5.64-3.65,8.75-4.59,1.55-.47,4.17.52,5.37,1.76.61.63-.32,3.9-1.49,4.9-6.04,5.22-12.36,10.11-18.61,15.09-18.6,14.82-36.56,30.4-52.66,47.93-10.56,11.49-21.25,23.02-30.37,35.63-9.5,13.14-17.41,27.46-25.61,41.5-9.15,15.66-15.61,32.49-16.73,50.67-1.36,22.02,1.7,43.38,22.17,56.4,8.54,5.44,19.26,8.07,29.37,10.3,16.53,3.64,33.1,1.15,49.22-3.25,6.33-1.73,12.26-5.06,18.18-8.05,13.07-6.61,23.41-16.55,31.38-28.59,9.76-14.75,16.77-30.66,14.6-49.07-.3-2.57-1.19-5.26-2.5-7.48-2.74-4.61-6.42-5.56-10.99-2.51-3.43,2.29-5.81,1.31-7.57-1.45-1.79-2.8-.66-5.23,2.13-7.19,8.49-5.97,19.27-3.6,24.68,5.22,4.93,8.02,5.56,16.7,4.37,25.57-1.56,11.61-4.9,22.83-10.78,32.97-8.58,14.79-19.24,27.76-34.01,37.1-20.93,13.24-43.71,19.22-68.27,17.96-19.79-1.02-38.44-6.05-53.7-19.58-7.24-6.42-11.42-14.98-14.5-24.06-5.5-16.22-4.54-32.66-1.62-50.48Z"/></svg>