<?xml version="1.0" encoding="UTF-8"?><svg id="Heart" xmlns="http://www.w3.org/2000/svg" viewBox="0 0 500 500"><defs><style>.cls-1{fill:none;stroke:#fff;stroke-miterlimit:10;stroke-width:15px;}</style></defs><path class="cls-1" d="m477.11,72.7c-13.08-28.42-41.19-58.88-101.19-46.43-.05,0-.09.02-.14.03-82.03,24.73-121.7,71.97-125.47,76.64-.2.24-.34.32-.42.22-2.44-3.07-42.05-51.67-125.68-76.87-.02,0-.04-.01-.06-.01C62.71,13.52,34.7,45.74,22.03,74.72c-8.87,20.27-10.49,42.96-5.14,64.43,6.64,26.7,20.89,70.77,49.01,111.48,42.05,60.85,170.49,211.03,183.12,225.77.35.4,2.58-.67,3.4-1.63,18.66-21.81,140.9-165.06,181.72-224.13,28.03-40.56,42.27-84.46,48.94-111.19,5.56-22.29,3.63-45.86-5.98-66.73Z"/></svg>