<?xml version="1.0" encoding="UTF-8"?><svg xmlns="http://www.w3.org/2000/svg" viewBox="0 0 500 500"><defs><style>.cls-1{fill:none;stroke:#000;stroke-miterlimit:10;stroke-width:15px;}</style></defs><g id="Eyes"><path d="m164.81,110.59h0c-2.93,2.93-7.68,2.93-10.61,0l-14.76-14.76c-15.01-15.01-39.34-15.01-54.34,0l-14.76,14.76c-2.93,2.93-7.68,2.93-10.61,0h0c-2.93-2.93-2.93-7.68,0-10.61l14.55-14.55c20.98-20.98,55-20.98,75.98,0l14.55,14.55c2.93,2.93,2.93,7.68,0,10.61Z"/><path d="m444.43,110.6h0c-2.93,2.93-7.68,2.93-10.61,0l-14.76-14.76c-15.01-15.01-39.34-15.01-54.34,0l-14.76,14.76c-2.93,2.93-7.68,2.93-10.61,0h0c-2.93-2.93-2.93-7.68,0-10.61l14.55-14.55c20.98-20.98,55-20.98,75.98,0l14.55,14.55c2.93,2.93,2.93,7.68,0,10.61Z"/></g><g id="Mouth"><path class="cls-1" d="m61.22,242.07s-13.78,62.67,34.67,65.33,83.33-32.44,154.11-32.67"/><path class="cls-1" d="m438.78,242.07s13.78,62.67-34.67,65.33c-48.44,2.67-83.33-32.44-154.11-32.67"/></g></svg>