<?xml version="1.0" encoding="UTF-8"?><svg id="Lager_4" xmlns="http://www.w3.org/2000/svg" viewBox="0 0 500 500"><path d="m250,23.72c12.54,0,24.99,5.18,37,15.39,12.56,10.68,24.46,26.92,34.43,46.96,10.46,21.02,18.69,45.61,24.47,73.1,6.04,28.73,9.11,59.29,9.11,90.83s-3.07,62.1-9.11,90.83c-5.78,27.49-14.02,52.08-24.47,73.1-9.97,20.04-21.88,36.28-34.43,46.96-12.01,10.21-24.46,15.39-37,15.39s-24.99-5.18-37-15.39c-12.56-10.68-24.46-26.92-34.43-46.96-10.46-21.02-18.69-45.61-24.47-73.1-6.04-28.73-9.11-59.29-9.11-90.83s3.06-62.1,9.11-90.83c5.78-27.49,14.02-52.08,24.47-73.1,9.97-20.04,21.88-36.28,34.43-46.96,12.01-10.21,24.46-15.39,37-15.39m0-15c-66.28,0-120.01,108.02-120.01,241.28s53.73,241.28,120.01,241.28,120.01-108.02,120.01-241.28S316.28,8.72,250,8.72h0Z"/></svg>