<?xml version="1.0" encoding="UTF-8"?><svg id="Lager_4" xmlns="http://www.w3.org/2000/svg" viewBox="0 0 500 500"><defs><style>.cls-1{fill:none;stroke:#000;stroke-miterlimit:10;stroke-width:15px;}</style></defs><path class="cls-1" d="m480.57,83.64c-137.78,25.47-166.08,316.88-167.55,333.18,0,.05-.08.04-.08,0-2.17-107.59-27.72-180.81-62.92-230.54,0-.01,0-.03,0-.05,84.33-119.1,224.04-103.46,230.56-102.66.05,0,.04.07,0,.07Z"/><path class="cls-1" d="m250,186.24c35.28,49.84,60.87,123.27,62.95,231.25,0,.02-.02.04-.04.04h-125.82s-.04,0-.04-.03c-.3-3.5-26.68-307.81-167.61-333.86-.04,0-.05-.07,0-.07,6.52-.8,146.24-16.45,230.57,102.68Z"/></svg>