<?xml version="1.0" encoding="UTF-8"?><svg xmlns="http://www.w3.org/2000/svg" viewBox="0 0 500 500"><g id="Circle"><path d="m250,282.19c19.21,0,34.83,15.63,34.83,34.83s-15.63,34.83-34.83,34.83-34.83-15.63-34.83-34.83,15.63-34.83,34.83-34.83m0-15c-27.52,0-49.83,22.31-49.83,49.83s22.31,49.83,49.83,49.83,49.83-22.31,49.83-49.83-22.31-49.83-49.83-49.83h0Z"/></g><g id="PointYArrowsIn"><polygon points="415.5 23.83 357.67 81.66 357.68 81.67 357.67 81.68 415.5 139.52 426.11 128.91 378.87 81.67 426.11 34.43 415.5 23.83"/><polygon points="88.65 139.52 146.49 81.68 146.48 81.67 146.49 81.66 88.65 23.83 78.04 34.43 125.28 81.67 78.04 128.91 88.65 139.52"/></g></svg>