<?xml version="1.0" encoding="UTF-8"?><svg id="PuzzleSnr2" xmlns="http://www.w3.org/2000/svg" viewBox="0 0 500 500"><path d="m84.76,142.91c-3.84,3.82-7.39,8-11.58,11.39-15.24,12.32-26.38,27.6-32.68,46.06-4.32,12.66-4.97,25.78-.72,38.76,2.69,8.23,9.18,11.86,17.14,13.09,16.72,2.59,32.18-1.51,47.39-8.42,27.07-12.29,49.49-30.95,70.87-50.92,18.47-17.26,36.44-35.14,51.57-55.51,12.88-17.34,22.74-36.12,21.94-58.58-.18-5.19-1.44-10.65-3.61-15.34-1.17-2.54-5.08-4.74-8.11-5.36-16.48-3.39-31.17,1.8-44.71,10.8-12.57,8.36-24.83,17.18-37.38,25.57-1.29.86-4.22.93-5.28.04-1.11-.94-1.63-3.74-1.07-5.23.75-2.02,2.47-4.03,4.3-5.26,14.33-9.64,28.62-19.35,43.25-28.52,13.59-8.52,28.69-9.85,44.21-7.3,8.62,1.42,15.03,8.81,16.98,18.17,4.02,19.29.23,37.43-8.61,54.47-10.88,20.98-26.12,38.75-42.98,55.2-5.82,5.68-11.12,11.89-16.98,17.51-18.96,18.2-38.42,35.86-61.44,48.91-9.8,5.56-19.82,11.02-30.32,14.98-16.62,6.27-33.84,8.54-51.07,1.67-8.29-3.3-13.3-9.55-15.84-18.06-6.59-22.07-1.63-42.34,9.23-61.81,6.49-11.63,15.03-21.55,25.05-30.18,5.54-4.77,11.72-8.58,20.46-6.17Z"/><path d="m420.98,416c-.21-2.48-1.02-5.12-.44-7.41.53-2.14,2.53-3.92,3.89-5.86,1.86,1.45,5.1,2.67,5.38,4.38,3.83,23.24-1.41,44.63-26.37,55.77-15.95,7.12-27.82,2.07-40.75-10.63-10.98-10.79-11.74-24.86-11.31-38.97.83-27.34,16.41-45.87,37.44-60.82,7.42-5.27,15.24-9.97,22.94-14.83,1.52-.96,3.32-2.03,5.01-2.06,2-.04,5.1.4,5.79,1.68,1.35,2.47.98,5.43-2.22,7.22-7.09,3.95-14.42,7.58-21.04,12.22-12.71,8.89-25.04,18.62-31.94,32.94-7.75,16.1-10.07,33.6-1.59,49.66,8.78,16.64,25.85,22.94,43.82,8.32,7.85-6.38,10.55-15,11.17-24.59.15-2.32.02-4.66.02-7,.06,0,.12,0,.18-.01Z"/><path d="m175.7,376.94c.04,4.34-3.75,8.04-8.35,8.16-4.24.11-8.16-3.85-8.21-8.29-.05-4.02,4.64-8.76,8.67-8.76,3.73,0,7.85,4.64,7.89,8.89Z"/><path d="m231.59,320.33c4.47.15,7.94,3.67,7.83,7.94-.13,5.07-4.08,9.01-8.84,8.83-4.49-.17-7.82-3.71-7.6-8.06.23-4.48,4.55-8.85,8.61-8.71Z"/></svg>