<?xml version="1.0" encoding="UTF-8"?><svg id="PuzzleSNr3" xmlns="http://www.w3.org/2000/svg" viewBox="0 0 500 500"><path d="m195.1,269.11c0-21.28-.54-42.57.13-63.83.92-28.9,3.2-57.77,10.81-85.82,5.18-19.08,10.58-38.22,20.39-55.59,16.45-29.12,42.23-42.42,75.07-41.7,31.27.68,52.15,17.23,64.32,45.42,2.17,5.02,3.75,10.3,5.5,15.5.41,1.23.87,2.77.47,3.86-.69,1.9-2.04,3.57-3.11,5.33-1.52-1.1-3.65-1.88-4.44-3.36-2.32-4.39-4.4-8.97-6.07-13.65-10.14-28.58-32.03-44.1-61.73-43.19-32.71,1-56.39,20.14-67.42,49.45-6.98,18.54-13.29,37.23-17.24,56.63-2.08,10.23-3.64,20.63-4.46,31.04-1.37,17.5-2.74,35.06-2.68,52.6.08,22.56,1.39,45.12,2.51,67.67.67,13.59,1.55,27.19,3.12,40.7,3.54,30.45,11.65,59.77,25.29,87.2,9.41,18.92,23.39,33.08,45.32,38.12,15.77,3.62,30.96,3.56,45.78-2.75,11.4-4.86,20.43-13.06,27.6-23.08,10.55-14.73,18.36-30.49,17.68-49.36-.13-3.56-1.19-9.04,4.88-9.1,5.5-.05,4.87,4.75,5.06,8.5.91,17.85-5.44,33.58-14.46,48.43-9.28,15.27-21.72,27.39-38.31,34.3-9.44,3.93-19.49,5.65-30.1,5.38-13.98-.36-26.79-3.72-39.17-9.89-12.4-6.18-20.85-16.2-28.08-27.57-8.65-13.6-13.89-28.6-18.89-43.83-9.45-28.81-13.54-58.43-15.14-88.54-.51-9.62-1.46-19.23-2.21-28.84-.15,0-.3-.02-.44-.02Z"/><path d="m240.47,232.93c-.09,4.79-3.56,8.56-7.88,8.57-3.94.02-7.86-4.54-7.69-8.93.15-3.84,4.06-8.17,7.44-8.24,3.74-.08,8.2,4.64,8.13,8.6Z"/><path d="m151.85,152.08c-.03-4.84,2.72-8.12,6.76-8.09,5,.04,8.53,3.5,8.53,8.35,0,4.27-3.6,7.83-7.87,7.78-4.6-.05-7.38-3.07-7.41-8.05Z"/></svg>