<?xml version="1.0" encoding="UTF-8"?><svg id="Lager_4" xmlns="http://www.w3.org/2000/svg" viewBox="0 0 500 500"><path d="m250,144.99c31.54,0,62.1,3.06,90.83,9.11,27.49,5.78,52.08,14.02,73.1,24.47,20.04,9.97,36.28,21.88,46.96,34.43,10.21,12.01,15.39,24.46,15.39,37s-5.18,24.99-15.39,37c-10.68,12.56-26.92,24.46-46.96,34.43-21.02,10.46-45.61,18.69-73.1,24.47-28.73,6.04-59.29,9.11-90.83,9.11s-62.1-3.07-90.83-9.11c-27.49-5.78-52.08-14.02-73.1-24.47-20.04-9.97-36.28-21.88-46.96-34.43-10.21-12.01-15.39-24.46-15.39-37s5.18-24.99,15.39-37c10.68-12.56,26.92-24.46,46.96-34.43,21.02-10.46,45.61-18.69,73.1-24.47,28.73-6.04,59.29-9.11,90.83-9.11m0-15c-133.25,0-241.28,53.73-241.28,120.01s108.02,120.01,241.28,120.01,241.28-53.73,241.28-120.01-108.02-120.01-241.28-120.01h0Z"/><polygon points="112.92 153.29 86.58 162.88 91.45 135.28 96.32 107.68 117.79 125.7 139.25 143.71 112.92 153.29"/><polygon points="385.49 153.29 411.83 162.88 406.96 135.28 402.1 107.68 380.63 125.7 359.16 143.71 385.49 153.29"/><polygon points="386.29 345.8 412.62 336.21 407.76 363.81 402.89 391.41 381.42 373.4 359.95 355.38 386.29 345.8"/><polygon points="113.71 345.8 87.38 336.21 92.24 363.81 97.11 391.41 118.58 373.4 140.05 355.38 113.71 345.8"/></svg>