<?xml version="1.0" encoding="UTF-8"?><svg id="PuzzleSnr1" xmlns="http://www.w3.org/2000/svg" viewBox="0 0 500 500"><path d="m115.51,57.12c-7.99,13.52-18.14,25.13-31.53,33.34-13.32,8.16-27.78,13.21-43.7,12.85-5.59-.13-11.21-.12-16.76-.66-2.14-.21-4.59-1.35-6.07-2.87-.93-.95-1.07-4.39-.28-4.97,1.79-1.31,4.54-2.46,6.6-2.07,16.33,3.07,31.87.25,46.78-6.28,11.13-4.87,20.13-12.77,27.95-22.03,7.7-9.12,13.44-19.23,16.89-30.73.52-1.73,3.61-3.53,5.61-3.65,1.24-.07,3.74,2.89,3.85,4.6.89,14.42,1.38,28.87,1.93,43.32.3,7.92.51,15.84.67,23.76.31,14.79.57,29.57.82,44.36.31,18.43.89,36.86.79,55.28-.08,14.28-1.12,28.56-1.57,42.84-.38,12.12-.6,24.25-.77,36.38-.25,18.63-.41,37.27-.57,55.91,0,1.1.31,2.2.6,4.15,2.7-2.44,4.97-4.3,7-6.38,13.69-14,27.1-28.28,41.06-42.01,11.82-11.63,24.16-22.73,36.42-33.9,11.87-10.82,23.92-21.45,35.9-32.15,9.41-8.4,18.67-16.98,28.34-25.08,3.63-3.04,8.1-5.18,12.43-7.2,1.33-.62,3.5.55,5.28.9-.34,1.68-.15,3.84-1.14,4.96-2.84,3.22-6.04,6.13-9.29,8.95-14.55,12.62-29.28,25.04-43.73,37.78-14.93,13.15-29.83,26.36-44.35,39.97-10.66,9.99-20.7,20.64-30.96,31.05-11.78,11.94-23.64,23.82-35.15,36.02-2.18,2.31-3.62,5.89-4.13,9.08-2.32,14.59-3.3,29.45-6.46,43.84-3.71,16.86-8.59,33.6-20.08,47.31-7.94,9.48-17.95,15.09-30.43,16.04-11.55.89-18.45-6.62-16.26-18.06,4.21-22.06,14.23-41.47,28.32-58.64,10.43-12.7,21.98-24.48,32.84-36.83,1.62-1.84,3.02-4.56,3.12-6.94.52-11.78.53-23.57.8-35.36.45-19.62.93-39.24,1.45-58.87.41-15.63,1.23-31.27,1.28-46.9.09-25.41-.13-50.82-.52-76.22-.3-19.39-1.1-38.77-1.6-58.16-.14-5.46-.02-10.92-.02-16.38-.44-.12-.88-.24-1.32-.36Zm-1.57,312.16c-1.71,1.46-2.33,1.93-2.88,2.47-14.21,13.86-26.36,29.37-36.71,46.28-6.46,10.56-11.1,21.88-12.95,34.22-.95,6.32.95,8.56,7.27,7.56,11.8-1.88,20.4-8.69,26.12-18.86,8.48-15.08,13-31.62,16.24-48.48,1.39-7.21,1.86-14.58,2.91-23.19Z"/><path d="m420.97,416c-.2-2.32-1.02-4.82-.42-6.91.65-2.27,2.63-4.16,4.03-6.22,1.82,1.51,4.95,2.8,5.25,4.57,2.8,16.72,1.28,32.8-11.28,45.53-9.38,9.5-26.07,16.74-37.55,11.82-16.06-6.89-26.91-17.89-29.06-36.13-2.38-20.18.7-39.05,14.23-54.75,6.87-7.97,15.04-14.97,23.3-21.56,6.96-5.55,14.88-9.9,22.43-14.68,1.52-.96,3.34-2.03,5.02-2.02,1.97,0,5.01.57,5.69,1.88,1.31,2.53.79,5.4-2.4,7.16-6.82,3.75-13.79,7.32-20.18,11.71-12.79,8.8-25.12,18.44-32.22,32.67-8.34,16.73-10.92,34.96-1.43,51.37,9.74,16.85,25.73,21.37,43.35,7.22,7.9-6.35,10.44-15.07,11.06-24.65.15-2.32.02-4.67.02-7h.17Z"/><path d="m175.68,377.23c-.06,4.37-3.89,7.98-8.5,8.02-4.18.03-8.12-4.09-8.08-8.44.05-4.03,4.86-8.73,8.83-8.62,3.73.1,7.8,4.86,7.74,9.04Z"/></svg>