<?xml version="1.0" encoding="UTF-8"?><svg id="Lager_1" xmlns="http://www.w3.org/2000/svg" viewBox="0 0 500 500"><path d="m250.43,144.53c31.54,0,62.1,3.06,90.83,9.11,27.49,5.78,52.08,14.02,73.1,24.47,20.04,9.97,36.28,21.88,46.96,34.43,10.21,12.01,15.39,24.46,15.39,37s-5.18,24.99-15.39,37c-10.68,12.56-26.92,24.46-46.96,34.43-21.02,10.46-45.61,18.69-73.1,24.47-28.73,6.04-59.29,9.11-90.83,9.11s-62.1-3.07-90.83-9.11c-27.49-5.78-52.08-14.02-73.1-24.47-20.04-9.97-36.28-21.88-46.96-34.43-10.21-12.01-15.39-24.46-15.39-37s5.18-24.99,15.39-37c10.68-12.56,26.92-24.46,46.96-34.43,21.02-10.46,45.61-18.69,73.1-24.47,28.73-6.04,59.29-9.11,90.83-9.11m0-15c-133.25,0-241.28,53.73-241.28,120.01s108.02,120.01,241.28,120.01,241.28-53.73,241.28-120.01-108.02-120.01-241.28-120.01h0Z"/><polygon points="257.5 221.69 242.5 221.69 242.5 278.31 257.5 278.31 257.5 221.69 257.5 221.69"/><path d="m250,193.22c31.31,0,56.78,25.47,56.78,56.78s-25.47,56.78-56.78,56.78-56.78-25.47-56.78-56.78,25.47-56.78,56.78-56.78m0-15c-39.64,0-71.78,32.14-71.78,71.78s32.14,71.78,71.78,71.78,71.78-32.14,71.78-71.78-32.14-71.78-71.78-71.78h0Z"/><polygon points="63.16 117.68 50.17 125.18 78.48 174.22 91.47 166.72 63.16 117.68 63.16 117.68"/><polygon points="107.98 98.58 94.99 106.08 123.3 155.12 136.29 147.62 107.98 98.58 107.98 98.58"/><polygon points="440.66 117.68 412.35 166.72 425.34 174.22 453.65 125.18 440.66 117.68 440.66 117.68"/><polygon points="395.85 98.58 367.54 147.62 380.53 155.12 408.84 106.08 395.85 98.58 395.85 98.58"/><polygon points="380.53 345.18 367.54 352.68 395.85 401.72 408.84 394.22 380.53 345.18 380.53 345.18"/><polygon points="123.3 345.18 94.99 394.22 107.98 401.72 136.29 352.68 123.3 345.18 123.3 345.18"/></svg>