<?xml version="1.0" encoding="UTF-8"?><svg id="SwirlyLine" xmlns="http://www.w3.org/2000/svg" viewBox="0 0 500 500"><polygon points="261.46 451.06 232.34 451.06 231.46 49.42 260.58 49.42 261.46 451.06"/><path d="m260.58,49.42c2.18-13.89,14.2-24.52,28.71-24.52s26.53,10.63,28.71,24.52h19.93c-2.34-27.36-25.27-48.84-53.23-48.84s-50.89,21.48-53.23,48.84h29.12Z"/><path d="m232.34,451.06c-2.18,13.89-14.2,24.52-28.71,24.52-14.51,0-26.53-10.63-28.71-24.52h-19.93c2.34,27.36,25.27,48.84,53.23,48.84s50.89-21.48,53.23-48.84h-29.12Z"/></svg>