<?xml version="1.0" encoding="UTF-8"?><svg id="O2" xmlns="http://www.w3.org/2000/svg" viewBox="0 0 500 500"><path d="m250,63.72l111.88,193.78,111.88,193.78H26.24l111.88-193.78L250,63.72m0-30l-124.87,216.28L.26,466.28h499.47l-124.87-216.28L250,33.72h0Z"/><path d="m250,193.22c31.31,0,56.78,25.47,56.78,56.78s-25.47,56.78-56.78,56.78-56.78-25.47-56.78-56.78,25.47-56.78,56.78-56.78m0-15c-39.64,0-71.78,32.14-71.78,71.78s32.14,71.78,71.78,71.78,71.78-32.14,71.78-71.78-32.14-71.78-71.78-71.78h0Z"/></svg>