<?xml version="1.0" encoding="UTF-8"?><svg id="PuzzleNrA" xmlns="http://www.w3.org/2000/svg" viewBox="0 0 500 500"><path d="m355.54,144.03c-6.67,5.89-12.42,11.08-18.29,16.12-8.79,7.54-17.71,14.93-26.5,22.47-3.02,2.59-5.76,5.53-8.76,8.15-11.72,10.26-23.56,20.37-35.23,30.69-14.55,12.86-29,25.82-43.42,38.82-8.01,7.22-15.76,14.72-23.89,21.78-1.37,1.19-4.36,1.55-6.17.96-2.8-.9-3.81-3.35-1.21-5.79,7.96-7.51,16.03-14.9,24-22.4,3.96-3.73,7.65-7.77,11.72-11.38,23.21-20.63,46.5-41.18,69.77-61.74,16.94-14.97,33.69-30.15,50.95-44.75,6.56-5.55,8.34-12.13,8.37-20.09.09-19.74,2.38-39.27,8.94-57.93,3-8.52,7.09-16.96,12.27-24.32,8.15-11.57,21.3-13.06,34.5-7.7,8.24,3.34,11.22,8.3,10.46,17.17-1.23,14.25-6.5,27.23-14.58,38.76-8.08,11.53-17.11,22.4-26.01,33.33-4.08,5.01-9.12,9.24-13.2,14.25-1.72,2.11-2.84,5.29-2.95,8.03-.89,21.27-1.57,42.54-2.11,63.82-.48,18.81-1.25,37.65-.83,56.45.34,15.67,2.81,31.24,9.52,45.65,8.01,17.21,21.16,27.74,40.58,29.42,1.32.11,2.9-.15,3.92.48,1.91,1.18,3.51,2.89,5.23,4.37-2.08,1.81-4.16,5.17-6.24,5.17-12.25,0-23.51-3.55-33.43-11.12-14.14-10.78-21.14-25.68-25.17-42.41-.97-4.04-2.28-7.99-3.24-12.03-.72-3.06-1.62-6.21-1.58-9.31.25-20.71.61-41.42,1.18-62.12.5-18.11,1.35-36.21,1.96-54.32.08-2.41-.3-4.84-.56-8.48Zm10.51-24.72c16.25-16.49,30.77-32.68,40.14-52.46,3.6-7.6,4.77-16.43,6.37-24.83.32-1.7-1.99-5.05-3.85-5.83-11.17-4.68-20.62-1.01-26.64,9.52-7.38,12.93-10.51,27.2-12.8,41.62-1.61,10.12-2.11,20.41-3.23,31.98Z"/><path d="m84.76,142.85c-3.82,3.81-7.33,8-11.51,11.38-15.24,12.32-26.37,27.59-32.73,46.03-4.26,12.33-4.85,25.11-1.14,37.82,2.6,8.92,9.27,12.9,17.91,14.18,16.57,2.45,31.85-1.6,46.91-8.43,27.23-12.34,49.77-31.12,71.25-51.24,18.33-17.16,36.18-34.92,51.22-55.15,12.89-17.34,22.64-36.08,22.1-58.56-.08-3.3-.48-6.67-1.29-9.86-2.23-8.79-3.9-9.96-12.86-11.31-13.08-1.97-25.21.76-36.22,7.71-12.19,7.69-24.01,15.95-35.99,23.98-2.62,1.76-5.06,3.86-7.86,5.26-1.36.68-3.86.76-4.91-.07-1.08-.85-1.82-3.46-1.31-4.74.87-2.18,2.47-4.47,4.4-5.77,14.45-9.75,28.87-19.58,43.68-28.78,13.61-8.46,28.75-9.71,44.25-7,8.42,1.47,14.69,8.78,16.57,17.97,4.14,20.18-.06,38.99-9.71,56.68-10.98,20.15-25.71,37.43-42.16,53.34-8.82,8.53-17.1,17.63-26.03,26.05-22.49,21.21-46.7,40.14-75.33,52.43-16.01,6.87-32.59,10.7-50.43,6.75-17.36-3.85-23.58-14.05-25.61-29.57-3.95-30.16,8.46-54.45,28.84-75.4,4.47-4.6,9.51-8.84,14.91-12.27,3.37-2.15,7.89-2.49,11.89-3.64.39.74.78,1.49,1.16,2.23Z"/><path d="m239.46,327.88c.12,4.9-3.81,9.17-8.49,9.21-4.5.04-7.99-3.31-7.98-7.67.01-4.4,4.18-9.02,8.22-9.12,4.3-.1,8.15,3.43,8.26,7.58Z"/></svg>