<?xml version="1.0" encoding="UTF-8"?><svg xmlns="http://www.w3.org/2000/svg" viewBox="0 0 500 500"><defs><style>.cls-1{fill:none;stroke:#000;stroke-miterlimit:10;stroke-width:15px;}</style></defs><g id="Circle"><path d="m250,282.19c19.21,0,34.83,15.63,34.83,34.83s-15.63,34.83-34.83,34.83-34.83-15.63-34.83-34.83,15.63-34.83,34.83-34.83m0-15c-27.52,0-49.83,22.31-49.83,49.83s22.31,49.83,49.83,49.83,49.83-22.31,49.83-49.83-22.31-49.83-49.83-49.83h0Z"/></g><g id="Mouth"><path class="cls-1" d="m61.22,242.07s-13.78,62.67,34.67,65.33,83.33-32.44,154.11-32.67"/><path class="cls-1" d="m438.78,242.07s13.78,62.67-34.67,65.33c-48.44,2.67-83.33-32.44-154.11-32.67"/></g></svg>