<?xml version="1.0" encoding="UTF-8"?><svg id="PuzzleNrD" xmlns="http://www.w3.org/2000/svg" viewBox="0 0 500 500"><path d="m49.44,449.25c1.44-21.8,8.23-40.23,20.01-57.27,12.97-18.76,28.58-35.05,44.88-50.72,14.86-14.28,30.05-28.29,45.82-41.55,17.94-15.08,36.49-29.47,55.16-43.65,14.15-10.75,28.89-20.72,43.39-31.02,18.54-13.16,37.49-25.79,55.53-39.6,15.95-12.21,31.04-25.58,46.26-38.72,13.7-11.83,25.12-25.69,33.77-41.61,7.13-13.13,15.1-25.96,17.98-40.97,1.64-8.56.26-16.63-4.83-23.8-3.12-4.4-7.29-7.25-12.99-7.18-2.17.02-4.45.39-6.46-.18-1.81-.51-4.58-2.03-4.65-3.22-.09-1.8,1.35-4.49,2.94-5.4,5.85-3.37,19.76-1.48,26.63,7,12.21,15.08,12.88,31.35,4.92,48.21-6.45,13.67-12.62,27.69-20.95,40.2-7.94,11.92-17.8,22.82-28.11,32.83-11.65,11.3-24.61,21.28-37.28,31.49-11.26,9.08-22.7,17.94-34.39,26.45-14.51,10.56-29.39,20.61-44.07,30.95-14.66,10.34-29.49,20.45-43.82,31.23-13.78,10.36-27.3,21.11-40.4,32.3-12.13,10.36-23.61,21.48-35.27,32.36-9.6,8.96-19.44,17.72-28.5,27.22-15.17,15.92-29.44,32.67-38.67,52.92-5.53,12.15-7.86,25-6.11,38.43,1.45,11.1,8.83,15.38,18.82,10.26,3.87-1.98,7.08-5.28,10.5-8.1,2.58-2.13,5.24-5.09,8.57-2.12,3.16,2.83,1.68,5.91-.96,8.65-6.24,6.47-13.19,12.23-22.23,13.47-14.44,1.97-19.29-4.17-23.42-16.26-1.47-4.32-1.52-9.12-2.05-12.61Z"/><path d="m84.74,142.87c-3.81,3.81-7.32,8-11.49,11.37-15.25,12.32-26.37,27.59-32.75,46.04-4.27,12.34-4.85,25.12-1.16,37.84,2.59,8.92,9.25,12.94,17.89,14.21,16.56,2.45,31.85-1.58,46.92-8.41,27.24-12.35,49.77-31.13,71.26-51.26,18.33-17.17,36.18-34.94,51.22-55.18,12.9-17.34,22.62-36.1,22.12-58.58-.07-3.3-.48-6.67-1.28-9.87-2.21-8.8-3.92-10-12.84-11.34-13.08-1.98-25.21.74-36.23,7.68-12.06,7.59-23.76,15.74-35.6,23.67-2.62,1.76-5.03,3.9-7.83,5.3-1.51.76-4.48,1.1-5.27.24-1.14-1.25-1.59-3.97-1.06-5.67.58-1.87,2.31-3.71,4.02-4.86,14.34-9.63,28.64-19.34,43.26-28.52,13.58-8.53,28.66-9.94,44.2-7.42,8.62,1.4,15.15,8.72,17.08,18.08,4.16,20.19-.05,39.02-9.69,56.72-10.97,20.16-25.71,37.45-42.16,53.37-8.82,8.54-17.11,17.63-26.03,26.06-22.6,21.35-46.97,40.39-75.77,52.68-15.84,6.76-32.32,10.49-49.99,6.56-17.41-3.87-23.61-14.08-25.65-29.57-3.97-30.17,8.44-54.48,28.81-75.45,4.47-4.6,9.51-8.84,14.91-12.29,3.36-2.15,7.88-2.5,11.87-3.65l1.22,2.22Z"/><path d="m420.98,415.98c-.2-2.32-1.03-4.82-.43-6.91.65-2.27,2.64-4.15,4.05-6.19,1.81,1.52,4.93,2.81,5.23,4.59,2.81,16.73,1.26,32.81-11.3,45.52-9.39,9.51-26.08,16.73-37.55,11.8-16.06-6.9-26.9-17.9-29.05-36.15-2.38-20.18.71-39.05,14.24-54.74,6.87-7.97,15.04-14.97,23.31-21.55,6.96-5.55,14.88-9.9,22.43-14.68,1.52-.96,3.35-2.03,5.02-2.02,1.97.01,5,.59,5.68,1.9,1.31,2.53.77,5.39-2.43,7.15-6.82,3.75-13.79,7.31-20.18,11.71-12.79,8.8-25.12,18.45-32.21,32.68-8.34,16.73-10.91,34.97-1.41,51.38,9.75,16.83,25.73,21.35,43.35,7.19,7.89-6.35,10.44-15.07,11.04-24.65.15-2.32.02-4.67.02-7,.06,0,.12,0,.18-.01Z"/></svg>