<?xml version="1.0" encoding="UTF-8"?><svg xmlns="http://www.w3.org/2000/svg" viewBox="0 0 500 500"><g id="Eyes"><path d="m164.81,110.59h0c-2.93,2.93-7.68,2.93-10.61,0l-14.76-14.76c-15.01-15.01-39.34-15.01-54.34,0l-14.76,14.76c-2.93,2.93-7.68,2.93-10.61,0h0c-2.93-2.93-2.93-7.68,0-10.61l14.55-14.55c20.98-20.98,55-20.98,75.98,0l14.55,14.55c2.93,2.93,2.93,7.68,0,10.61Z"/><path d="m444.43,110.6h0c-2.93,2.93-7.68,2.93-10.61,0l-14.76-14.76c-15.01-15.01-39.34-15.01-54.34,0l-14.76,14.76c-2.93,2.93-7.68,2.93-10.61,0h0c-2.93-2.93-2.93-7.68,0-10.61l14.55-14.55c20.98-20.98,55-20.98,75.98,0l14.55,14.55c2.93,2.93,2.93,7.68,0,10.61Z"/></g><g id="EyesNPointyArrows"><polygon points="170.11 156.29 112.27 98.45 112.26 98.46 112.25 98.45 54.42 156.29 65.02 166.9 112.26 119.66 159.5 166.9 170.11 156.29"/><polygon points="449.74 156.29 391.9 98.45 391.89 98.46 391.88 98.45 334.04 156.29 344.65 166.9 391.89 119.66 439.13 166.9 449.74 156.29"/></g></svg>