<?xml version="1.0" encoding="UTF-8"?><svg xmlns="http://www.w3.org/2000/svg" viewBox="0 0 500 500"><defs><style>.cls-1{fill:none;stroke:#fff;stroke-miterlimit:10;stroke-width:15px;}</style></defs><g id="Outer_Line"><path class="cls-1" d="m391.11,292.97c17.89-17.21,29.03-41.41,29.03-68.2,0-43.27-29.04-79.76-68.7-91.03.26-2.84.4-5.72.4-8.63,0-52.26-42.36-94.62-94.62-94.62s-94.62,42.36-94.62,94.62c0,3.03.15,6.03.43,8.99-39.04,11.66-67.5,47.84-67.5,90.67,0,25.61,10.18,48.85,26.71,65.89.62.63,1.24,1.26,1.87,1.88"/><line class="cls-1" x1="122.44" y1="291.03" x2="257.82" y2="473.67"/><line class="cls-1" x1="393.21" y1="291.03" x2="257.82" y2="473.67"/></g><g id="TopCircleFull"><path class="cls-1" d="m257.21,30.65c-52.26,0-94.62,42.36-94.62,94.62,0,3.03.15,6.03.43,8.99,3.7,39.27,31.4,71.56,68.27,82.04,8.24,2.34,16.93,3.59,25.92,3.59s18.53-1.38,27.12-3.95c36.39-10.87,63.58-43.04,67.11-82.04.26-2.84.4-5.72.4-8.63,0-52.26-42.36-94.62-94.62-94.62Z"/></g></svg>