<?xml version="1.0" encoding="UTF-8"?><svg xmlns="http://www.w3.org/2000/svg" viewBox="0 0 500 500"><g id="Circle"><path d="m250,282.19c19.21,0,34.83,15.63,34.83,34.83s-15.63,34.83-34.83,34.83-34.83-15.63-34.83-34.83,15.63-34.83,34.83-34.83m0-15c-27.52,0-49.83,22.31-49.83,49.83s22.31,49.83,49.83,49.83,49.83-22.31,49.83-49.83-22.31-49.83-49.83-49.83h0Z"/></g><g id="PointyArrowsUp"><polygon points="170.11 105.29 112.27 47.45 112.26 47.46 112.25 47.45 54.42 105.29 65.02 115.9 112.26 68.66 159.5 115.9 170.11 105.29"/><polygon points="449.74 105.29 391.9 47.45 391.89 47.46 391.88 47.45 334.04 105.29 344.65 115.9 391.89 68.66 439.13 115.9 449.74 105.29"/></g></svg>