<?xml version="1.0" encoding="UTF-8"?><svg id="Lager_7" xmlns="http://www.w3.org/2000/svg" viewBox="0 0 500 500"><path d="m361.36,34.41c-19.32,16.56-36.16,39.5-49.65,67.88-20.31,42.73-31.05,93.8-31.05,147.7s10.74,104.98,31.05,147.7c13.49,28.38,30.33,51.32,49.65,67.88-31.74-.67-62.05-22.05-85.51-60.36-12.19-19.91-21.79-43.2-28.53-69.23-7.04-27.2-10.62-56.14-10.62-86s3.57-58.8,10.62-86c6.74-26.02,16.34-49.31,28.53-69.23,23.46-38.31,53.77-59.68,85.51-60.36m1.55-15.02c-77.98,0-141.2,103.24-141.2,230.6s63.22,230.6,141.2,230.6c12.8,0,25.19-2.8,36.98-8.01-60.04-26.54-104.22-116.14-104.22-222.59s44.18-196.05,104.22-222.59c-11.79-5.21-24.18-8.01-36.98-8.01h0Z"/></svg>