<?xml version="1.0" encoding="UTF-8"?><svg id="Solution" xmlns="http://www.w3.org/2000/svg" viewBox="0 0 500 500"><defs><style>.cls-1{fill:none;}</style></defs><path class="cls-1" d="m108.8,21.13c-12.8,0-25.19,2.8-36.98,8.01,60.04,26.54,104.22,116.14,104.22,222.59s-44.18,196.05-104.22,222.59c11.79,5.21,24.18,8.01,36.98,8.01,77.98,0,141.2-103.24,141.2-230.6S186.78,21.13,108.8,21.13Z"/><path d="m352.96,49.78c-5.11,9.26-10.86,20.51-16.51,33.25-21.6,48.72-30.86,94.02-27.51,134.64,4.15,50.43-33.39,105.03-65.62,141.96-1.09,1.25-2.19,2.49-3.28,3.72,15.22-41.62,28.05-102.15,18.96-178.39-.25-3.58-3.54-59.72,30.61-99.13,15.55-17.94,36.78-30.01,63.35-36.06m29.15-19.11c-151.11,8.89-138.04,155.77-138.04,155.77,19.93,166.23-66.07,255.9-66.07,255.9,0,0,154.78-117.89,145.89-225.89-7.56-91.85,58.22-185.78,58.22-185.78h0Z"/></svg>