<?xml version="1.0" encoding="UTF-8"?><svg id="Lager_2" xmlns="http://www.w3.org/2000/svg" viewBox="0 0 500 500"><path d="m194.7,447.18c-17.12-3.64-33.09-9.1-47.93-16.39-14.84-7.28-12.77-9.12-29.65-4.31l.76-37.13c19.62-9.85,45.86,8.49,65.89,15.77,20.03,7.28,41.78,10.92,65.27,10.92,34.04,0,60.4-6.73,79.06-20.21,18.66-13.47,27.99-32.4,27.99-56.8v-.27c0-15.11-4.05-27.22-12.15-36.32-8.1-9.1-18.57-15.93-31.41-20.48-12.84-4.55-29.36-8.74-49.57-12.56-.55-.18-1.14-.32-1.78-.41-.64-.09-1.32-.23-2.05-.41l-7.92-1.64c-27.86-5.28-50.16-10.79-66.91-16.52-16.75-5.73-31-15.47-42.74-29.22-11.74-13.74-17.62-32.81-17.62-57.21v-.27c0-24.58,5.5-45.56,16.52-62.95,11.01-17.38,27.08-30.63,48.2-39.74,21.12-9.1,46.52-13.66,76.19-13.66,14.02,0,27.9,1.55,41.65,4.64,13.75,3.1,27.31,7.69,40.69,13.79,13.38,6.1,20.22,6.98,34.74,5.08l-10.74,26.79c-9.52,9.93-41.34,1.08-57.73-4.83-16.39-5.91-32.59-8.88-48.61-8.88-32.41,0-57.53,6.83-75.38,20.48-17.84,13.65-26.76,32.87-26.76,57.62v.27c0,14.93,4.46,26.72,13.38,35.37,8.92,8.65,19.98,15.07,33.18,19.25,13.2,4.19,31.27,8.56,54.21,13.11.73.18,1.5.37,2.32.55.82.18,1.68.37,2.59.55,1.09.18,2.14.41,3.14.68,1,.27,2.05.5,3.14.68,24.94,5.1,45.7,10.92,62.27,17.48,16.56,6.55,30.36,16.79,41.37,30.72,11.01,13.93,16.52,32.73,16.52,56.39v.55c0,24.22-5.74,44.92-17.21,62.13-11.47,17.21-28.09,30.31-49.84,39.33-21.76,9.01-48.02,13.52-78.79,13.52-19.12,0-37.24-1.82-54.35-5.46Z"/><path d="m381.96,70.87s10.15-2.54,11.71-29.65h23.56s-4.39,54.61-56.14,60.71l20.88-31.06Z"/><path d="m117.88,389.35s-28.05,9.65-33.8,26.49c-5.03,14.72-4.42,38.61-4.42,38.61h29.11s.02-25.83,8.34-27.96l.76-37.13Z"/></svg>