<?xml version="1.0" encoding="UTF-8"?><svg id="Lager_6" xmlns="http://www.w3.org/2000/svg" viewBox="0 0 500 500"><path d="m118.6,50.39c26.57,6.04,47.8,18.11,63.35,36.06,34.22,39.49,30.85,95.77,30.61,99.12-9.09,76.24,3.74,136.78,18.96,178.4-.98-1.1-1.96-2.22-2.95-3.34-32.38-37.03-70.11-91.78-65.95-142.34,3.34-40.62-5.91-85.92-27.51-134.64-5.65-12.74-11.4-23.99-16.51-33.25m-29.15-19.11s65.78,93.92,58.22,185.78c-8.89,108,145.89,225.89,145.89,225.89,0,0-86-89.67-66.07-255.9,0,0,13.07-146.88-138.04-155.77h0Z"/></svg>