<?xml version="1.0" encoding="UTF-8"?><svg id="Lager_1" xmlns="http://www.w3.org/2000/svg" viewBox="0 0 500 500"><path d="m250,220.78c16.11,0,29.22,13.11,29.22,29.22s-13.11,29.22-29.22,29.22-29.22-13.11-29.22-29.22,13.11-29.22,29.22-29.22m0-15c-24.42,0-44.22,19.8-44.22,44.22s19.8,44.22,44.22,44.22,44.22-19.8,44.22-44.22-19.8-44.22-44.22-44.22h0Z"/><path d="m80.22,48c16.11,0,29.22,13.11,29.22,29.22s-13.11,29.22-29.22,29.22-29.22-13.11-29.22-29.22,13.11-29.22,29.22-29.22m0-15c-24.42,0-44.22,19.8-44.22,44.22s19.8,44.22,44.22,44.22,44.22-19.8,44.22-44.22-19.8-44.22-44.22-44.22h0Z"/><path d="m414.56,48c16.11,0,29.22,13.11,29.22,29.22s-13.11,29.22-29.22,29.22-29.22-13.11-29.22-29.22,13.11-29.22,29.22-29.22m0-15c-24.42,0-44.22,19.8-44.22,44.22s19.8,44.22,44.22,44.22,44.22-19.8,44.22-44.22-19.8-44.22-44.22-44.22h0Z"/><path d="m82.83,389.78c16.11,0,29.22,13.11,29.22,29.22s-13.11,29.22-29.22,29.22-29.22-13.11-29.22-29.22,13.11-29.22,29.22-29.22m0-15c-24.42,0-44.22,19.8-44.22,44.22s19.8,44.22,44.22,44.22,44.22-19.8,44.22-44.22-19.8-44.22-44.22-44.22h0Z"/><path d="m417.17,389.78c16.11,0,29.22,13.11,29.22,29.22s-13.11,29.22-29.22,29.22-29.22-13.11-29.22-29.22,13.11-29.22,29.22-29.22m0-15c-24.42,0-44.22,19.8-44.22,44.22s19.8,44.22,44.22,44.22,44.22-19.8,44.22-44.22-19.8-44.22-44.22-44.22h0Z"/></svg>