<?xml version="1.0" encoding="UTF-8"?><svg id="Solution" xmlns="http://www.w3.org/2000/svg" viewBox="0 0 500 500"><path d="m117.68,248.85c-7.44,3.16-13.69,6.31-20.26,8.5-14.11,4.71-28.3,7.52-43.48,4.25-17.8-3.83-23.99-14.34-25.99-29.8-3.91-30.18,8.55-54.44,28.96-75.37,4.48-4.59,9.53-8.82,14.93-12.25,3.34-2.12,7.83-2.43,11.81-3.55.43.72.85,1.44,1.28,2.16-4.04,3.96-7.86,8.19-12.16,11.85-18.53,15.8-32,34.7-35.1,59.39-.91,7.27.2,14.93,1.31,22.27,1.5,9.96,10.29,15.69,21.94,16.52,14.85,1.06,28.77-2.04,42.05-8.51,4.02-1.96,8.23-3.61,11.96-6.01,1.6-1.03,3.05-3.57,3.12-5.47.55-14.91,1.05-29.84.99-44.76-.09-22.74-.58-45.49-.99-68.23-.36-19.74-.83-39.47-1.29-59.21-.03-1.12-.4-2.24-.65-3.56-3.67,4.79-7.25,9.27-10.63,13.9-10.2,13.96-24.09,23.01-40.14,28.26-13.37,4.38-27.35,6.58-41.56,3.56-.81-.17-1.63-.34-2.43-.53-3.46-.79-5.74-3.29-4.45-6.38.73-1.74,4.58-3.54,6.62-3.16,13.14,2.45,25.79.78,38.41-3,14.89-4.46,26.46-13.58,36.39-25.1,7.78-9.02,13.51-19.16,16.99-30.65.55-1.83,3.74-3.48,5.96-3.88.94-.17,3.52,3.03,3.62,4.81.85,14.42,1.31,28.86,1.85,43.29.31,8.25.62,16.5.79,24.75.31,14.28.52,28.56.75,42.84.29,18.25.68,36.5.79,54.75.05,7.46-.54,14.92-.8,22.39-.08,2.24-.01,4.48-.01,8.28,10.28-7.85,19.62-14.43,28.33-21.76,22.45-18.89,43.05-39.7,62.09-62,10.05-11.78,19.34-24.36,24.66-39,5.06-13.95,8.34-28.41,2.79-43.37-1.81-4.89-5.15-6.56-9.68-7.27-13.68-2.14-26.54.24-38.2,7.67-12.01,7.66-23.74,15.76-35.58,23.69-2.62,1.76-5.03,3.92-7.84,5.28-1.49.73-4.25.88-5.29-.03-1.1-.96-1.51-3.7-1-5.26.62-1.89,2.22-3.81,3.92-4.95,14.48-9.72,28.9-19.55,43.68-28.79,13.59-8.5,28.7-9.84,44.23-7.24,8.46,1.42,14.86,8.56,16.81,17.75,4.2,19.8.26,38.39-9.03,55.85-10.93,20.57-25.91,38.11-42.56,54.29-5.83,5.67-11.12,11.89-16.97,17.53-17.24,16.63-35.08,32.57-55.46,45.33-3.93,2.46-5.53,4.75-5.55,9.78-.05,19.61-1.07,39.21-1.51,58.82-.24,10.62-.04,21.24-.04,33.51,3.46-3.12,5.9-5.13,8.12-7.36,18.43-18.4,36.65-37.02,55.3-55.19,8.76-8.53,18.44-16.09,27.52-24.3,16.98-15.36,33.72-30.99,50.75-46.29,11.11-9.98,22.63-19.48,33.83-29.36,15.7-13.86,31.04-28.15,47.02-41.68,6.62-5.6,8.19-12.24,8.26-20.14.18-19.73,2.46-39.24,8.96-57.93,2.81-8.07,6.67-16.02,11.4-23.13,8.02-12.07,21.1-14.35,35.03-8.94,8.7,3.38,11.66,8.42,10.74,17.97-1.35,14.04-6.59,26.86-14.6,38.24-8.1,11.51-17.13,22.39-26.03,33.31-4.08,5.01-9.12,9.24-13.19,14.26-1.71,2.11-2.77,5.3-2.89,8.05-.88,21.27-1.57,42.54-2.11,63.82-.48,18.81-1.25,37.64-.83,56.44.35,15.67,2.83,31.24,9.57,45.64,8.04,17.2,21.22,27.69,40.64,29.33,1.81.15,3.84.09,5.35.9,1.64.88,3.97,2.72,3.91,4.03-.1,2.04-1.5,5.03-3.18,5.81-15.92,7.36-29.67,17.72-41.65,30.31-16.31,17.14-20.63,37.59-14.17,60.08,4.5,15.67,25.51,29.93,45.6,12.88,7.86-6.68,10.85-15.25,11.34-25.03.22-4.31-.6-8.72,0-12.96.35-2.51,2.27-6.49,3.93-6.73,2.64-.39,5.12,1.87,5.6,5.65,2.04,16.16.38,31.42-11.42,43.69-9.21,9.57-26.4,17.11-37.9,12.14-16.05-6.94-26.88-17.92-29.02-36.16-2.37-20.17.73-39.03,14.27-54.72,6.88-7.97,15.32-14.6,23.25-21.63,3.71-3.28,7.86-6.07,12.2-9.38-2.07-1.01-4.14-2.2-6.33-3.07-17.75-7.01-27.99-20.9-34.26-38.07-3.01-8.24-5.1-16.86-7.07-25.43-.88-3.8-.59-7.89-.57-11.85.06-10.92.13-21.84.42-32.76.69-26.24,1.52-52.48,2.25-78.71.07-2.46-.22-4.92-.41-8.81-6.67,5.83-12.41,10.93-18.23,15.91-8.93,7.64-17.96,15.15-26.86,22.81-3.15,2.71-5.97,5.79-9.1,8.52-11.46,10.04-23.04,19.96-34.47,30.03-9.34,8.23-18.54,16.62-27.8,24.94-14.8,13.3-29.91,26.26-44.31,39.98-13.8,13.16-26.84,27.11-40.25,40.69-8.76,8.88-17.7,17.58-26.25,26.65-1.98,2.1-3.71,5.34-3.85,8.14-.96,19.37-3.85,38.41-9.65,56.88-3.98,12.68-8.33,25.32-17.43,35.58-7.95,8.96-17.61,14.47-29.71,15.45-11.89.96-18.8-6.52-16.53-18.2,4.31-22.2,14.44-41.7,28.74-58.94,10.38-12.52,21.76-24.21,32.53-36.42,1.52-1.73,2.84-4.27,2.94-6.5.53-11.77.63-23.56.89-35.35.44-19.61.9-39.22,1.34-58.83.04-1.95,0-3.9,0-6.52Zm-3.2,121.91c-.53-.18-1.06-.36-1.59-.54-.4.24-.86.41-1.18.73-14.44,14.09-26.89,29.78-37.38,46.99-6.34,10.42-10.96,21.56-12.84,33.73-1.05,6.83.91,9.08,7.8,7.86,11.36-2.01,20.19-8.45,25.2-18.48,5.24-10.49,9.65-21.59,12.78-32.88,3.39-12.2,4.88-24.92,7.2-37.41Zm251.59-251.69c16.57-16.31,29.68-31.37,39.87-51.86,3.8-7.65,4.94-16.71,6.62-25.25.33-1.67-2.03-5.02-3.89-5.79-11.23-4.65-20.57-.99-26.61,9.59-7.38,12.93-10.49,27.21-12.78,41.63-1.61,10.11-2.11,20.4-3.21,31.69Z"/><path d="m175.7,376.86c.08,4.33-3.68,8.07-8.28,8.23-4.24.15-8.18-3.77-8.28-8.22-.09-4.04,4.52-8.78,8.6-8.83,3.72-.05,7.88,4.56,7.96,8.82Z"/><path d="m231.38,320.3c4.4.02,8.05,3.54,8.06,7.76,0,4.98-3.93,9.09-8.66,9.04-4.5-.06-7.91-3.49-7.8-7.86.11-4.42,4.37-8.96,8.4-8.94Z"/></svg>